<?xml version="1.0" encoding="UTF-8" ?>
<!DOCTYPE svg PUBLIC "-//W3C//DTD SVG 1.1//EN" "http://www.w3.org/Graphics/SVG/1.1/DTD/svg11.dtd">
<svg width="344pt" height="344pt" viewBox="0 0 344 344" version="1.1" xmlns="http://www.w3.org/2000/svg">
<g id="#000000ff">
<path fill="#000000" opacity="1.00" d=" M 78.48 70.77 C 82.91 69.71 87.49 69.85 92.01 69.86 C 147.31 69.89 202.61 69.84 257.90 69.88 C 266.59 69.85 275.22 73.47 281.21 79.77 C 287.18 85.89 290.42 94.45 290.25 102.98 C 290.25 148.99 290.25 195.00 290.25 241.01 C 290.45 250.03 286.77 259.05 280.18 265.23 C 274.05 271.17 265.48 274.31 256.98 274.13 C 199.64 274.09 142.30 274.21 84.97 274.07 C 68.56 273.93 53.96 259.43 53.81 243.00 C 53.68 196.01 53.76 149.01 53.77 102.02 C 53.55 87.53 64.38 73.95 78.48 70.77 M 83.48 118.58 C 78.75 119.62 75.21 124.19 75.28 129.02 C 75.20 165.01 75.29 201.01 75.23 237.00 C 75.27 240.66 74.85 244.70 77.10 247.85 C 79.21 251.12 83.13 252.80 86.95 252.61 C 143.97 252.57 201.00 252.64 258.02 252.57 C 264.10 252.75 269.20 247.05 268.75 241.05 C 268.73 203.71 268.79 166.37 268.72 129.03 C 268.86 123.34 263.84 118.17 258.11 118.31 C 201.41 118.20 144.70 118.32 87.99 118.25 C 86.48 118.28 84.96 118.28 83.48 118.58 Z" />
</g>
</svg>
