<?xml version="1.0" encoding="UTF-8" ?>
<!DOCTYPE svg PUBLIC "-//W3C//DTD SVG 1.1//EN" "http://www.w3.org/Graphics/SVG/1.1/DTD/svg11.dtd">
<svg width="100pt" height="100pt" viewBox="0 0 100 100" version="1.1" xmlns="http://www.w3.org/2000/svg">
<g id="#000000ff">
<path fill="#000000" opacity="1.00" d=" M 16.46 13.66 C 19.13 12.44 22.13 12.52 25.00 12.51 C 37.33 12.61 49.67 12.44 62.00 12.59 C 68.99 12.62 75.06 18.95 74.95 25.91 C 75.04 33.63 75.04 41.35 74.95 49.06 C 75.02 55.49 69.90 61.45 63.52 62.29 C 54.13 63.00 44.66 62.09 35.28 62.73 C 28.81 67.00 22.80 71.95 16.35 76.25 C 13.19 78.65 8.19 75.93 8.39 72.01 C 8.25 57.00 8.37 41.97 8.34 26.95 C 8.03 21.39 11.30 15.85 16.46 13.66 Z" />
<path fill="#000000" opacity="1.00" d=" M 79.09 50.02 C 79.33 43.03 79.04 36.03 79.23 29.04 C 86.07 29.89 91.90 35.90 91.64 42.95 C 91.64 58.28 91.76 73.61 91.59 88.94 C 91.61 92.61 86.99 95.14 83.92 93.08 C 77.31 88.77 71.27 83.58 64.61 79.35 C 55.43 78.85 46.19 79.56 37.00 79.03 C 33.12 78.79 29.92 76.31 27.36 73.58 C 30.46 71.19 33.64 68.92 36.83 66.66 C 45.25 66.64 53.66 66.74 62.07 66.63 C 70.90 66.54 78.82 58.86 79.09 50.02 Z" />
</g>
</svg>
