<?xml version="1.0" encoding="UTF-8" ?>
<!DOCTYPE svg PUBLIC "-//W3C//DTD SVG 1.1//EN" "http://www.w3.org/Graphics/SVG/1.1/DTD/svg11.dtd">
<svg width="100pt" height="100pt" viewBox="0 0 100 100" version="1.1" xmlns="http://www.w3.org/2000/svg">
<g id="#000000ff">
<path fill="#000000" opacity="1.00" d=" M 40.64 6.68 C 46.91 2.95 55.34 3.50 61.14 7.89 C 64.76 10.42 66.93 14.39 68.32 18.48 C 55.93 30.77 43.67 43.18 31.27 55.45 C 31.25 44.62 31.22 33.79 31.26 22.95 C 31.20 16.36 34.90 9.93 40.64 6.68 Z" />
<path fill="#000000" opacity="1.00" d=" M 87.53 8.52 C 89.85 7.49 92.51 10.18 91.48 12.50 C 89.93 14.89 87.67 16.71 85.69 18.73 C 80.03 24.39 74.38 30.05 68.73 35.73 C 68.67 42.45 68.94 49.19 68.62 55.91 C 68.01 65.26 59.36 73.10 50.01 72.90 C 45.05 73.07 40.53 70.67 36.78 67.64 C 35.32 69.11 33.86 70.57 32.39 72.03 C 37.44 76.58 44.09 79.50 50.97 79.11 C 61.19 78.86 70.72 71.60 73.77 61.85 C 75.59 56.75 74.63 51.27 75.21 46.00 C 75.72 43.11 80.47 43.06 81.03 45.97 C 82.13 55.74 80.70 66.43 74.02 74.09 C 68.87 80.43 61.15 84.30 53.10 85.36 C 53.10 88.89 53.37 92.44 52.88 95.95 C 52.08 98.56 47.96 98.57 47.12 95.99 C 46.63 92.46 46.90 88.88 46.89 85.34 C 39.82 84.45 33.19 81.30 27.99 76.44 C 23.14 81.14 18.54 86.11 13.59 90.71 C 11.70 92.99 7.72 90.95 8.32 88.09 C 9.28 85.71 11.55 84.15 13.25 82.30 C 35.95 59.66 58.61 36.97 81.28 14.30 C 83.31 12.32 85.12 10.06 87.53 8.52 Z" />
<path fill="#000000" opacity="1.00" d=" M 18.97 46.06 C 19.37 43.07 24.27 43.07 24.79 46.00 C 25.25 50.95 24.72 55.98 25.83 60.88 C 24.20 62.53 22.57 64.19 20.91 65.82 C 18.65 59.52 18.31 52.68 18.97 46.06 Z" />
</g>
</svg>
