<?xml version="1.0" encoding="UTF-8" ?>
<!DOCTYPE svg PUBLIC "-//W3C//DTD SVG 1.1//EN" "http://www.w3.org/Graphics/SVG/1.1/DTD/svg11.dtd">
<svg width="100pt" height="100pt" viewBox="0 0 100 100" version="1.1" xmlns="http://www.w3.org/2000/svg">
<g id="#000000ff">
<path fill="#000000" opacity="1.00" d=" M 87.48 8.53 C 89.29 7.74 91.53 9.14 91.66 11.09 C 91.89 12.86 90.25 14.03 89.25 15.24 C 81.66 22.69 74.19 30.27 66.66 37.79 C 66.63 47.81 66.75 57.83 66.62 67.85 C 66.69 74.68 60.87 80.93 54.01 81.14 C 43.74 81.45 33.46 81.18 23.19 81.26 C 19.75 84.49 16.69 88.12 13.05 91.12 C 11.31 92.61 8.34 91.05 8.30 88.82 C 8.10 87.31 9.44 86.32 10.27 85.28 C 33.97 61.66 57.59 37.97 81.27 14.32 C 83.29 12.34 85.10 10.10 87.48 8.53 Z" />
<path fill="#000000" opacity="1.00" d=" M 14.77 20.81 C 18.36 18.44 22.85 18.74 26.96 18.71 C 36.00 18.85 45.05 18.55 54.08 18.84 C 57.76 18.85 60.83 21.03 63.48 23.35 C 45.97 40.89 28.46 58.43 10.90 75.91 C 9.45 73.17 8.20 70.24 8.34 67.08 C 8.33 55.71 8.32 44.35 8.34 32.98 C 8.20 28.16 10.57 23.29 14.77 20.81 Z" />
<path fill="#000000" opacity="1.00" d=" M 86.77 27.70 C 88.63 26.22 91.70 27.67 91.58 30.09 C 91.82 42.40 91.55 54.73 91.71 67.05 C 91.56 68.84 92.04 71.21 90.29 72.38 C 88.42 73.72 86.42 72.08 84.76 71.21 C 80.14 68.36 75.49 65.57 70.83 62.78 C 70.83 54.26 70.83 45.74 70.83 37.22 C 76.18 34.11 81.37 30.72 86.77 27.70 Z" />
</g>
</svg>
