<?xml version="1.0" encoding="UTF-8" ?>
<!DOCTYPE svg PUBLIC "-//W3C//DTD SVG 1.1//EN" "http://www.w3.org/Graphics/SVG/1.1/DTD/svg11.dtd">
<svg width="100pt" height="100pt" viewBox="0 0 100 100" version="1.1" xmlns="http://www.w3.org/2000/svg">
<g id="#000000ff">
<path fill="#000000" opacity="1.00" d=" M 24.38 8.55 C 32.24 7.99 40.14 8.54 48.01 8.30 C 50.71 8.46 54.04 7.64 56.05 9.97 C 64.56 18.45 73.07 26.95 81.55 35.46 C 83.55 37.05 83.38 39.73 83.38 42.03 C 83.24 55.35 83.43 68.68 83.29 82.00 C 83.54 87.08 79.11 91.71 74.03 91.61 C 58.68 91.77 43.32 91.59 27.97 91.69 C 24.84 91.79 21.42 91.17 19.26 88.69 C 16.90 86.45 16.61 83.05 16.63 79.99 C 16.74 59.31 16.59 38.63 16.70 17.96 C 16.52 13.49 19.94 9.21 24.38 8.55 M 22.91 18.97 C 22.91 37.65 22.93 56.34 22.91 75.03 C 22.96 77.94 22.59 80.93 23.31 83.78 C 24.38 85.84 27.06 85.27 28.96 85.44 C 43.97 85.28 58.98 85.55 73.98 85.31 C 76.37 85.49 77.26 83.00 77.09 81.04 C 77.10 67.92 77.07 54.79 77.08 41.67 C 71.03 41.58 64.98 41.84 58.93 41.58 C 54.46 41.50 50.33 37.66 50.13 33.15 C 49.77 26.97 50.11 20.78 50.00 14.60 C 42.00 14.69 34.00 14.44 26.01 14.68 C 23.60 14.49 22.74 17.01 22.91 18.97 M 56.25 19.00 C 56.40 23.63 55.94 28.28 56.43 32.90 C 56.48 34.15 57.68 35.33 58.96 35.25 C 63.51 35.68 68.08 35.26 72.63 35.40 C 67.19 29.91 61.72 24.46 56.25 19.00 Z" />
</g>
</svg>
