<?xml version="1.0" encoding="UTF-8" ?>
<!DOCTYPE svg PUBLIC "-//W3C//DTD SVG 1.1//EN" "http://www.w3.org/Graphics/SVG/1.1/DTD/svg11.dtd">
<svg width="100pt" height="100pt" viewBox="0 0 100 100" version="1.1" xmlns="http://www.w3.org/2000/svg">
<g id="#000000ff">
<path fill="#000000" opacity="1.00" d=" M 8.30 11.13 C 8.41 9.14 10.70 7.72 12.53 8.55 C 14.51 9.82 16.03 11.64 17.69 13.28 C 41.69 37.28 65.69 61.29 89.71 85.28 C 90.59 86.32 91.92 87.38 91.67 88.93 C 91.52 91.42 88.05 92.68 86.41 90.74 C 78.32 82.93 70.52 74.82 62.50 66.94 C 62.35 71.63 62.86 76.36 62.22 81.03 C 61.30 84.86 56.00 86.60 53.06 83.89 C 46.51 78.44 40.44 72.39 33.82 67.04 C 28.50 65.95 22.90 67.33 17.52 66.35 C 13.37 65.40 10.29 61.33 10.45 57.08 C 10.41 52.02 10.30 46.96 10.52 41.91 C 10.72 37.54 14.55 33.68 18.92 33.44 C 22.23 33.19 25.56 33.36 28.88 33.33 C 22.70 27.10 16.49 20.91 10.26 14.73 C 9.39 13.70 8.07 12.66 8.30 11.13 Z" />
<path fill="#000000" opacity="1.00" d=" M 53.05 16.11 C 56.29 13.06 62.33 15.62 62.38 20.06 C 62.68 29.78 62.41 39.52 62.49 49.24 C 55.13 41.95 47.86 34.56 40.47 27.29 C 44.65 23.55 48.75 19.71 53.05 16.11 Z" />
<path fill="#000000" opacity="1.00" d=" M 79.32 25.40 C 82.85 23.66 84.32 28.19 85.40 30.63 C 91.26 43.46 90.72 58.65 84.58 71.29 C 83.00 69.74 81.42 68.19 79.84 66.64 C 84.43 55.88 84.56 43.24 79.38 32.66 C 78.41 30.42 76.26 26.98 79.32 25.40 Z" />
<path fill="#000000" opacity="1.00" d=" M 68.26 38.15 C 68.50 35.38 72.79 34.36 73.97 37.02 C 77.92 44.55 77.86 53.68 74.78 61.51 C 73.14 59.92 71.52 58.31 69.92 56.68 C 70.74 52.90 71.26 48.91 70.25 45.12 C 69.71 42.76 68.57 40.56 68.26 38.15 Z" />
</g>
</svg>
