<?xml version="1.0" encoding="UTF-8" ?>
<!DOCTYPE svg PUBLIC "-//W3C//DTD SVG 1.1//EN" "http://www.w3.org/Graphics/SVG/1.1/DTD/svg11.dtd">
<svg width="100pt" height="100pt" viewBox="0 0 100 100" version="1.1" xmlns="http://www.w3.org/2000/svg">
<g id="#000000ff">
<path fill="#000000" opacity="1.00" d=" M 14.30 38.34 C 20.95 35.59 29.25 39.89 30.82 46.90 C 32.75 53.60 27.92 61.15 21.06 62.24 C 14.64 63.65 7.78 59.01 6.55 52.59 C 5.19 46.77 8.70 40.38 14.30 38.34 Z" />
<path fill="#000000" opacity="1.00" d=" M 45.31 38.44 C 51.73 35.63 59.91 39.46 61.87 46.18 C 64.20 52.79 59.78 60.64 52.95 62.10 C 46.51 63.87 39.31 59.44 37.89 52.95 C 36.33 47.14 39.72 40.60 45.31 38.44 Z" />
<path fill="#000000" opacity="1.00" d=" M 76.39 38.51 C 82.78 35.61 91.00 39.32 93.06 46.01 C 95.40 52.40 91.43 60.11 84.88 61.92 C 78.63 64.02 71.29 60.13 69.40 53.85 C 67.30 47.91 70.58 40.85 76.39 38.51 Z" />
</g>
</svg>
