<?xml version="1.0" encoding="UTF-8" ?>
<!DOCTYPE svg PUBLIC "-//W3C//DTD SVG 1.1//EN" "http://www.w3.org/Graphics/SVG/1.1/DTD/svg11.dtd">
<svg width="100pt" height="100pt" viewBox="0 0 100 100" version="1.1" xmlns="http://www.w3.org/2000/svg">
<g id="#000000ff">
<path fill="#000000" opacity="1.00" d=" M 73.74 8.79 C 76.02 5.35 81.08 4.21 84.57 6.42 C 87.44 8.16 90.39 9.88 92.78 12.26 C 94.97 14.72 94.83 18.18 94.06 21.17 C 96.44 24.68 95.76 29.01 95.82 33.00 C 95.78 48.69 95.85 64.39 95.79 80.09 C 96.01 83.44 93.70 86.74 90.39 87.50 C 87.64 88.01 84.81 87.77 82.03 87.81 C 59.03 87.79 36.04 87.80 13.05 87.81 C 10.43 87.90 7.54 87.34 5.84 85.15 C 4.05 83.21 4.17 80.44 4.14 77.99 C 4.25 60.63 4.06 43.27 4.23 25.92 C 4.20 21.96 8.00 18.76 11.88 19.03 C 30.27 18.95 48.67 19.03 67.07 19.00 C 69.34 15.63 71.35 12.08 73.74 8.79 M 77.81 13.84 C 72.84 21.56 67.94 29.32 62.91 36.98 C 60.03 40.89 60.16 46.00 59.35 50.57 C 63.94 48.96 69.35 47.36 71.76 42.74 C 76.71 35.33 81.73 27.97 86.75 20.61 C 87.39 19.47 88.48 18.40 88.38 16.99 C 86.50 14.59 83.63 13.11 81.00 11.64 C 79.40 11.00 78.60 12.87 77.81 13.84 M 10.46 25.42 C 10.49 44.12 10.20 62.83 10.60 81.51 C 36.88 81.51 63.16 81.61 89.44 81.46 C 89.72 63.53 89.49 45.58 89.56 27.64 C 84.78 34.59 80.06 41.57 75.34 48.56 C 73.28 51.96 69.23 53.02 65.96 54.87 C 63.65 56.20 61.04 56.90 58.36 56.72 C 55.02 60.88 49.42 63.88 44.07 61.86 C 36.39 59.30 35.00 49.47 27.81 46.32 C 22.85 44.36 18.76 48.25 14.71 50.37 C 14.84 42.53 24.75 37.51 31.65 40.43 C 38.37 43.06 40.85 50.55 46.14 54.88 C 48.84 57.08 52.46 56.08 55.45 55.15 C 51.99 51.41 53.51 46.29 54.36 41.87 C 55.06 35.40 60.08 30.75 63.05 25.26 C 45.52 25.37 27.98 25.06 10.46 25.42 Z" />
</g>
</svg>
