<?xml version="1.0" encoding="UTF-8" ?>
<!DOCTYPE svg PUBLIC "-//W3C//DTD SVG 1.1//EN" "http://www.w3.org/Graphics/SVG/1.1/DTD/svg11.dtd">
<svg width="100pt" height="100pt" viewBox="0 0 100 100" version="1.1" xmlns="http://www.w3.org/2000/svg">
<g id="#000000ff">
<path fill="#000000" opacity="1.00" d=" M 54.45 13.41 C 56.55 11.81 59.82 12.44 61.37 14.52 C 62.66 16.05 62.44 18.16 62.53 20.02 C 62.45 40.66 62.57 61.31 62.47 81.96 C 62.91 86.01 57.77 89.12 54.49 86.61 C 47.75 81.00 41.90 74.29 34.97 68.94 C 28.71 68.33 22.39 69.12 16.13 68.56 C 11.62 67.94 8.15 63.58 8.36 59.06 C 8.34 52.69 8.23 46.32 8.41 39.96 C 8.57 35.50 12.47 31.54 16.94 31.34 C 22.63 31.05 28.34 31.49 34.03 31.18 C 35.41 31.26 36.34 30.08 37.32 29.31 C 43.06 24.05 48.57 18.51 54.45 13.41 Z" />
<path fill="#000000" opacity="1.00" d=" M 80.43 24.40 C 81.80 23.74 83.59 24.25 84.36 25.59 C 94.15 40.11 94.09 60.63 83.93 74.94 C 82.54 76.66 79.53 75.97 78.80 73.96 C 78.10 72.21 79.48 70.68 80.20 69.21 C 87.26 57.44 87.08 41.83 79.86 30.17 C 78.47 28.46 77.99 25.45 80.43 24.40 Z" />
<path fill="#000000" opacity="1.00" d=" M 71.29 34.32 C 72.65 33.38 74.74 33.92 75.51 35.38 C 80.39 44.48 80.38 56.16 75.18 65.11 C 73.25 67.75 68.55 65.07 70.00 62.09 C 73.08 55.49 74.04 47.66 71.11 40.83 C 70.26 38.78 68.70 35.80 71.29 34.32 Z" />
</g>
</svg>
