<?xml version="1.0" encoding="UTF-8" ?>
<!DOCTYPE svg PUBLIC "-//W3C//DTD SVG 1.1//EN" "http://www.w3.org/Graphics/SVG/1.1/DTD/svg11.dtd">
<svg width="100pt" height="100pt" viewBox="0 0 100 100" version="1.1" xmlns="http://www.w3.org/2000/svg">
<g id="#000000ff">
<path fill="#000000" opacity="1.00" d=" M 17.35 19.57 C 20.46 18.54 23.79 18.74 27.01 18.71 C 35.68 18.82 44.36 18.62 53.03 18.78 C 57.71 18.76 62.31 21.25 64.68 25.30 C 66.53 28.16 66.71 31.67 66.69 34.97 C 66.60 45.94 66.76 56.90 66.62 67.87 C 66.57 72.42 64.12 76.87 60.20 79.21 C 56.58 81.58 52.07 81.26 47.94 81.29 C 38.99 81.14 30.03 81.47 21.09 81.15 C 14.25 80.94 8.36 74.81 8.38 67.98 C 8.30 56.00 8.30 44.02 8.38 32.05 C 8.40 26.53 12.15 21.36 17.35 19.57 Z" />
<path fill="#000000" opacity="1.00" d=" M 84.74 28.79 C 86.41 27.92 88.46 26.26 90.33 27.65 C 91.80 28.58 91.59 30.48 91.69 31.97 C 91.65 43.99 91.66 56.01 91.69 68.03 C 91.69 69.73 91.65 71.99 89.73 72.69 C 87.92 73.42 86.32 71.99 84.80 71.23 C 80.17 68.39 75.52 65.57 70.84 62.80 C 70.83 54.26 70.82 45.73 70.84 37.20 C 75.50 34.43 80.14 31.64 84.74 28.79 Z" />
</g>
</svg>
