<?xml version="1.0" encoding="UTF-8" ?>
<!DOCTYPE svg PUBLIC "-//W3C//DTD SVG 1.1//EN" "http://www.w3.org/Graphics/SVG/1.1/DTD/svg11.dtd">
<svg width="96pt" height="96pt" viewBox="0 0 96 96" version="1.1" xmlns="http://www.w3.org/2000/svg">
<g id="#000000ff">
<path fill="#000000" opacity="1.00" d=" M 46.33 8.33 C 48.75 7.01 52.09 9.08 51.95 11.85 C 52.04 22.58 52.04 33.33 51.94 44.06 C 52.15 47.20 48.10 49.24 45.67 47.29 C 43.91 46.16 43.99 43.89 43.98 42.06 C 44.03 32.34 43.98 22.62 44.00 12.90 C 43.84 11.08 44.53 9.08 46.33 8.33 Z" />
<path fill="#000000" opacity="1.00" d=" M 32.48 19.56 C 35.84 17.81 39.65 22.30 37.38 25.34 C 35.05 27.76 31.63 28.83 29.25 31.25 C 18.91 40.20 16.99 56.98 25.04 68.04 C 32.20 78.70 47.11 82.97 58.86 77.80 C 69.42 73.54 76.56 62.30 75.96 50.93 C 75.69 40.70 69.24 31.25 60.17 26.69 C 56.08 24.85 58.48 18.18 62.82 19.31 C 78.16 25.69 87.09 43.92 83.06 60.01 C 79.62 76.29 63.70 88.73 47.04 87.95 C 30.01 87.82 14.48 73.97 12.38 57.07 C 9.96 41.94 18.54 25.91 32.48 19.56 Z" />
</g>
</svg>
