<?xml version="1.0" encoding="UTF-8" ?>
<!DOCTYPE svg PUBLIC "-//W3C//DTD SVG 1.1//EN" "http://www.w3.org/Graphics/SVG/1.1/DTD/svg11.dtd">
<svg width="100pt" height="100pt" viewBox="0 0 100 100" version="1.1" xmlns="http://www.w3.org/2000/svg">
<g id="#000000ff">
<path fill="#000000" opacity="1.00" d=" M 8.37 19.94 C 8.16 14.79 12.80 10.25 17.92 10.44 C 39.30 10.37 60.68 10.38 82.05 10.43 C 87.18 10.23 91.81 14.76 91.62 19.91 C 91.72 34.27 91.67 48.63 91.65 62.99 C 91.94 67.85 88.02 72.58 83.08 72.81 C 76.92 73.14 70.75 72.83 64.58 72.94 C 64.58 76.40 64.58 79.87 64.58 83.34 C 67.48 83.37 70.43 83.03 73.29 83.66 C 76.24 84.87 75.11 89.80 71.89 89.52 C 58.28 89.75 44.66 89.49 31.04 89.64 C 29.23 89.46 26.91 90.00 25.61 88.38 C 24.38 86.90 24.96 84.42 26.73 83.65 C 29.58 83.05 32.52 83.36 35.42 83.34 C 35.42 79.87 35.42 76.40 35.42 72.94 C 29.27 72.83 23.11 73.14 16.97 72.82 C 12.05 72.62 8.08 67.95 8.35 63.09 C 8.33 48.71 8.29 34.32 8.37 19.94 M 16.14 17.10 C 14.33 18.02 14.69 20.33 14.55 22.01 C 14.65 35.65 14.48 49.30 14.63 62.94 C 14.19 65.52 16.67 67.02 18.95 66.66 C 39.32 66.69 59.68 66.63 80.05 66.69 C 81.39 66.57 82.91 66.80 84.11 66.07 C 85.77 64.94 85.25 62.68 85.45 60.97 C 85.32 47.30 85.55 33.62 85.35 19.96 C 85.58 17.49 83.09 16.42 81.01 16.67 C 61.01 16.64 41.01 16.72 21.00 16.63 C 19.38 16.68 17.69 16.55 16.14 17.10 M 41.67 72.94 C 41.67 76.40 41.67 79.87 41.67 83.33 C 47.22 83.33 52.78 83.33 58.33 83.33 C 58.33 79.87 58.33 76.40 58.33 72.93 C 52.78 72.93 47.22 72.93 41.67 72.94 Z" />
</g>
</svg>
