<?xml version="1.0" encoding="UTF-8" ?>
<!DOCTYPE svg PUBLIC "-//W3C//DTD SVG 1.1//EN" "http://www.w3.org/Graphics/SVG/1.1/DTD/svg11.dtd">
<svg width="344pt" height="344pt" viewBox="0 0 344 344" version="1.1" xmlns="http://www.w3.org/2000/svg">
<g id="#000000ff">
<path fill="#000000" opacity="1.00" d=" M 35.38 29.50 C 39.51 27.52 43.97 29.44 47.65 31.49 C 132.99 74.14 218.32 116.83 303.66 159.49 C 307.58 161.55 312.45 163.10 314.34 167.51 C 316.91 172.76 314.25 179.52 308.95 181.84 C 220.92 225.88 132.89 269.93 44.82 313.90 C 39.90 316.78 32.96 315.05 30.18 310.02 C 28.26 306.94 28.33 303.03 29.74 299.77 C 42.06 268.06 54.32 236.33 66.61 204.61 C 67.63 202.05 68.44 199.39 69.82 197.00 C 71.54 194.18 74.66 192.46 77.89 192.10 C 112.94 186.49 147.96 180.66 183.01 175.05 C 184.70 174.86 187.22 174.31 186.63 172.00 C 187.23 169.70 184.71 169.13 183.02 168.95 C 147.96 163.35 112.94 157.51 77.88 151.90 C 73.63 151.50 69.90 148.49 68.57 144.44 C 56.10 112.26 43.65 80.08 31.17 47.91 C 30.01 44.74 28.25 41.50 28.77 38.01 C 29.21 34.24 31.87 30.90 35.38 29.50 Z" />
</g>
</svg>
